<svg width="99" height="55" viewBox="0 0 199 155" fill="none" xmlns="http://www.w3.org/2000/svg">
      <path d="M16.3368 2.87305C16.7079 1.54329 17.6356 0.862956 19.12 0.832031H26.7738C27.3923 0.832031 27.9644 1.0485 28.4901 1.48145C28.6138 1.57422 28.7375 1.69792 28.8612 1.85254C29.0159 2.06901 29.2323 2.6875 29.5106 3.70801L37.5819 39.2402L46.8593 2.87305C47.2304 1.54329 48.1581 0.862956 49.6425 0.832031H57.5282C57.8993 0.832031 58.2549 0.924805 58.5951 1.11035C59.4301 1.63607 59.6929 2.50195 59.3837 3.70801L43.5194 65.959C43.1483 67.2887 42.2206 67.9691 40.7362 68H32.8505C32.2011 68 31.7372 67.8145 31.4589 67.4434C31.2115 67.0723 31.0259 66.6393 30.9022 66.1445L22.4599 28.8032L12.997 65.959C12.6259 67.2887 11.6981 67.9691 10.2138 68H2.32803C1.95693 68 1.6013 67.9072 1.26113 67.7217C0.42617 67.196 0.163312 66.3301 0.472557 65.124L16.3368 2.87305ZM75.0364 33.1172C73.181 40.168 72.2532 45.9045 72.2532 50.3267C72.2532 55.0581 73.3047 57.4238 75.4075 57.4238C75.8714 57.4238 76.3353 57.362 76.7991 57.2383C78.1289 56.8053 79.5514 55.321 81.0667 52.7852C82.984 49.4453 84.9013 43.9717 86.8186 36.3643C88.7669 28.4167 89.741 22.4482 89.741 18.459C89.741 14.4697 88.7669 12.4596 86.8186 12.4287C84.5921 12.4287 82.6748 13.7585 81.0667 16.418C79.1185 19.6341 77.1084 25.2005 75.0364 33.1172ZM61.8626 30.1484C63.9655 22.0153 66.9497 15.2892 70.8152 9.97021C75.6395 3.3833 81.0358 0.0898438 87.0042 0.0898438C87.2825 0.0898438 87.5608 0.0898438 87.8392 0.0898438C92.818 0.368164 96.498 1.91439 98.8792 4.72852C101.229 7.51172 102.405 12.2432 102.405 18.9229C102.405 24.4583 101.353 31.3854 99.2503 39.7041C97.735 45.7035 95.8022 50.8833 93.452 55.2437C88.6587 64.0571 82.6748 68.4639 75.5003 68.4639C70.5833 68.4639 66.826 67.2114 64.2283 64.7065C60.9812 61.4904 59.3577 55.7848 59.3577 47.5898C59.3577 42.4564 60.1927 36.6426 61.8626 30.1484ZM121.026 53.9912L146.121 2.78027C146.802 1.4196 147.977 0.801107 149.647 0.924805L156.883 1.20312C157.811 1.20312 158.491 1.48145 158.924 2.03809C159.543 2.59473 159.543 3.46061 158.924 4.63574L127.938 64.2891C127.659 64.7839 127.397 65.2168 127.149 65.5879C125.943 67.196 124.505 68 122.835 68L112.166 68.0928C111.146 68.0309 110.342 67.7371 109.754 67.2114C108.857 66.4383 108.455 65.2477 108.548 63.6396L111.981 3.05859C112.043 1.72884 112.97 1.0485 114.764 1.01758H122.279C122.897 1.01758 123.407 1.18766 123.809 1.52783C124.273 1.89893 124.474 2.5638 124.412 3.52246L121.026 53.9912ZM174.298 38.8691H184.364L185.988 15.0264L174.298 38.8691ZM168.871 49.9092L160.893 66.2373C160.181 67.598 159.006 68.2165 157.367 68.0928L150.131 67.8145C150.1 67.8145 150.038 67.8145 149.945 67.8145C147.966 67.6598 147.348 66.5156 148.09 64.3818L179.076 4.72852C179.293 4.29557 179.556 3.86263 179.865 3.42969C181.071 1.82161 182.509 1.01758 184.179 1.01758L194.848 0.924805C195.435 0.89388 195.976 0.986654 196.471 1.20312C197.894 1.85254 198.559 3.24414 198.466 5.37793L195.033 65.959C194.848 67.2578 193.92 67.9382 192.25 68H184.735C184.519 68 184.303 67.9845 184.086 67.9536C182.911 67.7062 182.416 66.8867 182.602 65.4951L183.622 49.9092H168.871ZM34.9379 113.066H50.7558C52.4566 113.097 53.106 114.087 52.704 116.035L51.5907 121.509C51.4979 121.88 51.3433 122.251 51.1269 122.622C50.4465 123.612 49.6116 124.106 48.622 124.106H32.1547L27.0521 143.96H44.8183C46.6428 143.991 47.3541 144.98 46.952 146.929L45.746 152.402C45.6532 152.773 45.4831 153.145 45.2357 153.516C44.5245 154.505 43.6431 155 42.5917 155H14.1103C13.7082 155 13.3371 154.907 12.997 154.722C12.1929 154.196 11.9455 153.33 12.2548 152.124L25.8461 98.8721H22.5526C22.3052 98.8721 22.0733 98.8566 21.8568 98.8257C20.6199 98.6092 20.2642 97.5114 20.7899 95.5322L22.2743 89.6875C22.398 89.1309 22.5372 88.6825 22.6918 88.3423C22.8773 88.0021 23.3567 87.832 24.1298 87.832H58.5487C60.3733 87.863 61.0845 88.8525 60.6825 90.8008L59.4765 96.2744C59.3837 96.6455 59.2136 97.0166 58.9662 97.3877C58.2549 98.3773 57.3736 98.8721 56.3222 98.8721H38.5561L34.9379 113.066ZM83.1077 155C80.8193 155 79.5514 153.949 79.304 151.846L77.4021 135.935L69.47 153.423C69.2845 153.825 68.9752 154.181 68.5423 154.49C68.0784 154.83 67.3672 155 66.4085 155H57.5022C56.5745 155 55.9406 154.722 55.6004 154.165C55.1674 153.454 55.3066 152.433 56.0179 151.104L72.6243 120.164L66.4085 91.4502C66.1611 90.3369 66.2075 89.4401 66.5477 88.7598C66.8569 88.0794 67.6145 87.7393 68.8206 87.7393H75.6858C77.7578 87.7393 79.0257 88.7907 79.4895 90.8936L82.5511 108.474L91.7356 89.3164C91.9212 88.9453 92.2459 88.5742 92.7098 88.2031C93.1118 87.8939 93.823 87.7393 94.8436 87.7393H103.611C104.6 87.7393 105.281 87.9557 105.652 88.3887C106.301 89.1927 106.208 90.2751 105.373 91.6357L86.4476 123.875L92.3851 151.289C92.6634 152.526 92.5861 153.485 92.1531 154.165C91.813 154.722 91.1172 155 90.0657 155H83.1077ZM122.371 113.066H138.189C139.89 113.097 140.539 114.087 140.137 116.035L139.024 121.509C138.931 121.88 138.777 122.251 138.56 122.622C137.88 123.612 137.045 124.106 136.055 124.106H119.588L114.486 143.96H132.252C134.076 143.991 134.787 144.98 134.385 146.929L133.179 152.402C133.087 152.773 132.917 153.145 132.669 153.516C131.958 154.505 131.077 155 130.025 155H101.544C101.142 155 100.771 154.907 100.43 154.722C99.6263 154.196 99.3789 153.33 99.6882 152.124L113.279 98.8721H109.986C109.739 98.8721 109.507 98.8566 109.29 98.8257C108.053 98.6092 107.698 97.5114 108.223 95.5322L109.708 89.6875C109.831 89.1309 109.971 88.6825 110.125 88.3423C110.311 88.0021 110.79 87.832 111.563 87.832H145.982C147.807 87.863 148.518 88.8525 148.116 90.8008L146.91 96.2744C146.817 96.6455 146.647 97.0166 146.4 97.3877C145.688 98.3773 144.807 98.8721 143.756 98.8721H125.989L122.371 113.066ZM166.134 118.308L169.567 118.076C169.845 118.045 170.139 118.014 170.448 117.983C173.324 117.55 175.535 115.911 177.082 113.066C177.236 112.572 177.422 111.969 177.638 111.257C178.752 107.052 179.308 103.634 179.308 101.006C179.308 100.666 179.169 100.326 178.891 99.9854C178.272 99.2432 177.484 98.8721 176.525 98.8721C176.185 98.8411 175.303 98.8257 173.881 98.8257C172.706 98.8257 171.794 98.8102 171.144 98.7793L166.134 118.308ZM158.434 98.6865H155.28C154.847 98.6865 154.445 98.5783 154.074 98.3618C153.27 97.867 153.022 97.1094 153.332 96.0889L155.002 89.6875C155.063 89.4401 155.172 89.1927 155.326 88.9453C155.821 88.2031 156.424 87.832 157.135 87.832H176.896C179.556 87.832 181.921 88.234 183.993 89.0381C188.663 90.8936 190.998 94.5117 190.998 99.8926C190.998 103.325 190.271 107.314 188.817 111.86C187.178 116.963 184.705 120.828 181.396 123.457C177.901 126.364 171.995 127.864 163.676 127.957L157.321 152.959C156.95 154.289 156.022 154.969 154.538 155H146.652C146.25 155 145.894 154.907 145.585 154.722C144.781 154.196 144.518 153.33 144.796 152.124L158.434 98.6865Z" fill="white"/>
      </svg>